# MagicaVoxel @ Ephtracy

# group
o 

# material
mtllib changeCollor.mtl
usemtl palette

# normals
vn -1 0 0
vn 1 0 0
vn 0 0 1
vn 0 0 -1
vn 0 -1 0
vn 0 1 0

# texcoords
vt 0.0253906 0.5
vt 0.138672 0.5
vt 0.154297 0.5
vt 0.404297 0.5
vt 0.681641 0.5
vt 0.705078 0.5
vt 0.748047 0.5

# verts
v 0 3 0
v 0 3 -0.3
v 0 3 -7.7
v 0 3 -8
v 0 3.9 0
v 0 3.9 -0.3
v 0 3.9 -7.7
v 0 3.9 -8
v 0 5.7 0
v 0 5.7 -0.3
v 0 5.7 -7.7
v 0 5.7 -8
v 0 7.1 0
v 0 7.1 -0.3
v 0 7.1 -7.7
v 0 7.1 -8
v 0 7.7 0
v 0 7.7 -0.1
v 0 7.7 -0.3
v 0 7.7 -0.4
v 0 7.7 -7.6
v 0 7.7 -7.7
v 0 7.7 -7.9
v 0 7.7 -8
v 0 7.8 -0.1
v 0 7.8 -0.2
v 0 7.8 -0.4
v 0 7.8 -0.5
v 0 7.8 -7.5
v 0 7.8 -7.6
v 0 7.8 -7.8
v 0 7.8 -7.9
v 0 7.9 -0.2
v 0 7.9 -0.3
v 0 7.9 -0.5
v 0 7.9 -0.6
v 0 7.9 -7.4
v 0 7.9 -7.5
v 0 7.9 -7.7
v 0 7.9 -7.8
v 0 8 -0.3
v 0 8 -0.4
v 0 8 -0.6
v 0 8 -0.7
v 0 8 -7.3
v 0 8 -7.4
v 0 8 -7.6
v 0 8 -7.7
v 0 8.1 -0.4
v 0 8.1 -0.5
v 0 8.1 -0.7
v 0 8.1 -0.8
v 0 8.1 -7.2
v 0 8.1 -7.3
v 0 8.1 -7.5
v 0 8.1 -7.6
v 0 8.2 -0.5
v 0 8.2 -0.6
v 0 8.2 -0.8
v 0 8.2 -0.9
v 0 8.2 -7.1
v 0 8.2 -7.2
v 0 8.2 -7.4
v 0 8.2 -7.5
v 0 8.3 -0.6
v 0 8.3 -0.7
v 0 8.3 -0.9
v 0 8.3 -1.2
v 0 8.3 -2.8
v 0 8.3 -5.2
v 0 8.3 -6.8
v 0 8.3 -7.1
v 0 8.3 -7.3
v 0 8.3 -7.4
v 0 8.4 -0.7
v 0 8.4 -0.8
v 0 8.4 -7.2
v 0 8.4 -7.3
v 0 8.5 -0.8
v 0 8.5 -0.9
v 0 8.5 -7.1
v 0 8.5 -7.2
v 0 8.6 -0.9
v 0 8.6 -1.2
v 0 8.6 -2.8
v 0 8.6 -5.2
v 0 8.6 -6.8
v 0 8.6 -7.1
v 0.3 3 0
v 0.3 3 -0.3
v 0.3 3 -7.7
v 0.3 3 -8
v 0.3 3.9 0
v 0.3 3.9 -0.3
v 0.3 3.9 -7.7
v 0.3 3.9 -8
v 0.3 5.7 0
v 0.3 5.7 -0.3
v 0.3 5.7 -7.7
v 0.3 5.7 -8
v 0.3 7.1 0
v 0.3 7.1 -0.3
v 0.3 7.1 -7.7
v 0.3 7.1 -8
v 0.3 7.7 0
v 0.3 7.7 -0.1
v 0.3 7.7 -0.3
v 0.3 7.7 -0.4
v 0.3 7.7 -7.6
v 0.3 7.7 -7.7
v 0.3 7.7 -7.9
v 0.3 7.7 -8
v 0.3 7.8 -0.1
v 0.3 7.8 -0.2
v 0.3 7.8 -0.4
v 0.3 7.8 -0.5
v 0.3 7.8 -7.5
v 0.3 7.8 -7.6
v 0.3 7.8 -7.8
v 0.3 7.8 -7.9
v 0.3 7.9 -0.2
v 0.3 7.9 -0.3
v 0.3 7.9 -0.5
v 0.3 7.9 -0.6
v 0.3 7.9 -7.4
v 0.3 7.9 -7.5
v 0.3 7.9 -7.7
v 0.3 7.9 -7.8
v 0.3 8 -0.3
v 0.3 8 -0.4
v 0.3 8 -0.6
v 0.3 8 -0.7
v 0.3 8 -7.3
v 0.3 8 -7.4
v 0.3 8 -7.6
v 0.3 8 -7.7
v 0.3 8.1 -0.4
v 0.3 8.1 -0.5
v 0.3 8.1 -0.7
v 0.3 8.1 -0.8
v 0.3 8.1 -7.2
v 0.3 8.1 -7.3
v 0.3 8.1 -7.5
v 0.3 8.1 -7.6
v 0.3 8.2 -0.5
v 0.3 8.2 -0.6
v 0.3 8.2 -0.8
v 0.3 8.2 -0.9
v 0.3 8.2 -7.1
v 0.3 8.2 -7.2
v 0.3 8.2 -7.4
v 0.3 8.2 -7.5
v 0.3 8.3 -0.6
v 0.3 8.3 -0.7
v 0.3 8.3 -0.9
v 0.3 8.3 -1.2
v 0.3 8.3 -2.8
v 0.3 8.3 -5.2
v 0.3 8.3 -6.8
v 0.3 8.3 -7.1
v 0.3 8.3 -7.3
v 0.3 8.3 -7.4
v 0.3 8.4 -0.7
v 0.3 8.4 -0.8
v 0.3 8.4 -7.2
v 0.3 8.4 -7.3
v 0.3 8.5 -0.8
v 0.3 8.5 -0.9
v 0.3 8.5 -7.1
v 0.3 8.5 -7.2
v 0.3 8.6 -0.9
v 0.3 8.6 -1.2
v 0.3 8.6 -2.8
v 0.3 8.6 -5.2
v 0.3 8.6 -6.8
v 0.3 8.6 -7.1
v 0 3 0
v 0 3.9 0
v 0 5.7 0
v 0 7.1 0
v 0 7.7 0
v 0.3 3 0
v 0.3 3.9 0
v 0.3 5.7 0
v 0.3 7.1 0
v 0.3 7.7 0
v 0 7.7 -0.1
v 0 7.8 -0.1
v 0.3 7.7 -0.1
v 0.3 7.8 -0.1
v 0 7.8 -0.2
v 0 7.9 -0.2
v 0.3 7.8 -0.2
v 0.3 7.9 -0.2
v 0 7.9 -0.3
v 0 8 -0.3
v 0.3 7.9 -0.3
v 0.3 8 -0.3
v 0 8 -0.4
v 0 8.1 -0.4
v 0.3 8 -0.4
v 0.3 8.1 -0.4
v 0 8.1 -0.5
v 0 8.2 -0.5
v 0.3 8.1 -0.5
v 0.3 8.2 -0.5
v 0 8.2 -0.6
v 0 8.3 -0.6
v 0.3 8.2 -0.6
v 0.3 8.3 -0.6
v 0 8.3 -0.7
v 0 8.4 -0.7
v 0.3 8.3 -0.7
v 0.3 8.4 -0.7
v 0 8.4 -0.8
v 0 8.5 -0.8
v 0.3 8.4 -0.8
v 0.3 8.5 -0.8
v 0 8.5 -0.9
v 0 8.6 -0.9
v 0.3 8.5 -0.9
v 0.3 8.6 -0.9
v 0 8.2 -7.1
v 0 8.3 -7.1
v 0.3 8.2 -7.1
v 0.3 8.3 -7.1
v 0 8.1 -7.2
v 0 8.2 -7.2
v 0.3 8.1 -7.2
v 0.3 8.2 -7.2
v 0 8 -7.3
v 0 8.1 -7.3
v 0.3 8 -7.3
v 0.3 8.1 -7.3
v 0 7.9 -7.4
v 0 8 -7.4
v 0.3 7.9 -7.4
v 0.3 8 -7.4
v 0 7.8 -7.5
v 0 7.9 -7.5
v 0.3 7.8 -7.5
v 0.3 7.9 -7.5
v 0 7.7 -7.6
v 0 7.8 -7.6
v 0.3 7.7 -7.6
v 0.3 7.8 -7.6
v 0 3 -7.7
v 0 3.9 -7.7
v 0 5.7 -7.7
v 0 7.1 -7.7
v 0 7.7 -7.7
v 0.3 3 -7.7
v 0.3 3.9 -7.7
v 0.3 5.7 -7.7
v 0.3 7.1 -7.7
v 0.3 7.7 -7.7
v 0 3 -0.3
v 0 3.9 -0.3
v 0 5.7 -0.3
v 0 7.1 -0.3
v 0 7.7 -0.3
v 0.3 3 -0.3
v 0.3 3.9 -0.3
v 0.3 5.7 -0.3
v 0.3 7.1 -0.3
v 0.3 7.7 -0.3
v 0 7.7 -0.4
v 0 7.8 -0.4
v 0.3 7.7 -0.4
v 0.3 7.8 -0.4
v 0 7.8 -0.5
v 0 7.9 -0.5
v 0.3 7.8 -0.5
v 0.3 7.9 -0.5
v 0 7.9 -0.6
v 0 8 -0.6
v 0.3 7.9 -0.6
v 0.3 8 -0.6
v 0 8 -0.7
v 0 8.1 -0.7
v 0.3 8 -0.7
v 0.3 8.1 -0.7
v 0 8.1 -0.8
v 0 8.2 -0.8
v 0.3 8.1 -0.8
v 0.3 8.2 -0.8
v 0 8.2 -0.9
v 0 8.3 -0.9
v 0.3 8.2 -0.9
v 0.3 8.3 -0.9
v 0 8.5 -7.1
v 0 8.6 -7.1
v 0.3 8.5 -7.1
v 0.3 8.6 -7.1
v 0 8.4 -7.2
v 0 8.5 -7.2
v 0.3 8.4 -7.2
v 0.3 8.5 -7.2
v 0 8.3 -7.3
v 0 8.4 -7.3
v 0.3 8.3 -7.3
v 0.3 8.4 -7.3
v 0 8.2 -7.4
v 0 8.3 -7.4
v 0.3 8.2 -7.4
v 0.3 8.3 -7.4
v 0 8.1 -7.5
v 0 8.2 -7.5
v 0.3 8.1 -7.5
v 0.3 8.2 -7.5
v 0 8 -7.6
v 0 8.1 -7.6
v 0.3 8 -7.6
v 0.3 8.1 -7.6
v 0 7.9 -7.7
v 0 8 -7.7
v 0.3 7.9 -7.7
v 0.3 8 -7.7
v 0 7.8 -7.8
v 0 7.9 -7.8
v 0.3 7.8 -7.8
v 0.3 7.9 -7.8
v 0 7.7 -7.9
v 0 7.8 -7.9
v 0.3 7.7 -7.9
v 0.3 7.8 -7.9
v 0 3 -8
v 0 3.9 -8
v 0 5.7 -8
v 0 7.1 -8
v 0 7.7 -8
v 0.3 3 -8
v 0.3 3.9 -8
v 0.3 5.7 -8
v 0.3 7.1 -8
v 0.3 7.7 -8
v 0 3 0
v 0.3 3 0
v 0 3 -0.3
v 0.3 3 -0.3
v 0 3 -7.7
v 0.3 3 -7.7
v 0 3 -8
v 0.3 3 -8
v 0 7.7 -0.3
v 0.3 7.7 -0.3
v 0 7.7 -0.4
v 0.3 7.7 -0.4
v 0 7.7 -7.6
v 0.3 7.7 -7.6
v 0 7.7 -7.7
v 0.3 7.7 -7.7
v 0 7.8 -0.4
v 0.3 7.8 -0.4
v 0 7.8 -0.5
v 0.3 7.8 -0.5
v 0 7.8 -7.5
v 0.3 7.8 -7.5
v 0 7.8 -7.6
v 0.3 7.8 -7.6
v 0 7.9 -0.5
v 0.3 7.9 -0.5
v 0 7.9 -0.6
v 0.3 7.9 -0.6
v 0 7.9 -7.4
v 0.3 7.9 -7.4
v 0 7.9 -7.5
v 0.3 7.9 -7.5
v 0 8 -0.6
v 0.3 8 -0.6
v 0 8 -0.7
v 0.3 8 -0.7
v 0 8 -7.3
v 0.3 8 -7.3
v 0 8 -7.4
v 0.3 8 -7.4
v 0 8.1 -0.7
v 0.3 8.1 -0.7
v 0 8.1 -0.8
v 0.3 8.1 -0.8
v 0 8.1 -7.2
v 0.3 8.1 -7.2
v 0 8.1 -7.3
v 0.3 8.1 -7.3
v 0 8.2 -0.8
v 0.3 8.2 -0.8
v 0 8.2 -0.9
v 0.3 8.2 -0.9
v 0 8.2 -7.1
v 0.3 8.2 -7.1
v 0 8.2 -7.2
v 0.3 8.2 -7.2
v 0 8.3 -0.9
v 0.3 8.3 -0.9
v 0 8.3 -1.2
v 0.3 8.3 -1.2
v 0 8.3 -2.8
v 0.3 8.3 -2.8
v 0 8.3 -5.2
v 0.3 8.3 -5.2
v 0 8.3 -6.8
v 0.3 8.3 -6.8
v 0 8.3 -7.1
v 0.3 8.3 -7.1
v 0 7.7 0
v 0.3 7.7 0
v 0 7.7 -0.1
v 0.3 7.7 -0.1
v 0 7.7 -7.9
v 0.3 7.7 -7.9
v 0 7.7 -8
v 0.3 7.7 -8
v 0 7.8 -0.1
v 0.3 7.8 -0.1
v 0 7.8 -0.2
v 0.3 7.8 -0.2
v 0 7.8 -7.8
v 0.3 7.8 -7.8
v 0 7.8 -7.9
v 0.3 7.8 -7.9
v 0 7.9 -0.2
v 0.3 7.9 -0.2
v 0 7.9 -0.3
v 0.3 7.9 -0.3
v 0 7.9 -7.7
v 0.3 7.9 -7.7
v 0 7.9 -7.8
v 0.3 7.9 -7.8
v 0 8 -0.3
v 0.3 8 -0.3
v 0 8 -0.4
v 0.3 8 -0.4
v 0 8 -7.6
v 0.3 8 -7.6
v 0 8 -7.7
v 0.3 8 -7.7
v 0 8.1 -0.4
v 0.3 8.1 -0.4
v 0 8.1 -0.5
v 0.3 8.1 -0.5
v 0 8.1 -7.5
v 0.3 8.1 -7.5
v 0 8.1 -7.6
v 0.3 8.1 -7.6
v 0 8.2 -0.5
v 0.3 8.2 -0.5
v 0 8.2 -0.6
v 0.3 8.2 -0.6
v 0 8.2 -7.4
v 0.3 8.2 -7.4
v 0 8.2 -7.5
v 0.3 8.2 -7.5
v 0 8.3 -0.6
v 0.3 8.3 -0.6
v 0 8.3 -0.7
v 0.3 8.3 -0.7
v 0 8.3 -7.3
v 0.3 8.3 -7.3
v 0 8.3 -7.4
v 0.3 8.3 -7.4
v 0 8.4 -0.7
v 0.3 8.4 -0.7
v 0 8.4 -0.8
v 0.3 8.4 -0.8
v 0 8.4 -7.2
v 0.3 8.4 -7.2
v 0 8.4 -7.3
v 0.3 8.4 -7.3
v 0 8.5 -0.8
v 0.3 8.5 -0.8
v 0 8.5 -0.9
v 0.3 8.5 -0.9
v 0 8.5 -7.1
v 0.3 8.5 -7.1
v 0 8.5 -7.2
v 0.3 8.5 -7.2
v 0 8.6 -0.9
v 0.3 8.6 -0.9
v 0 8.6 -1.2
v 0.3 8.6 -1.2
v 0 8.6 -2.8
v 0.3 8.6 -2.8
v 0 8.6 -5.2
v 0.3 8.6 -5.2
v 0 8.6 -6.8
v 0.3 8.6 -6.8
v 0 8.6 -7.1
v 0.3 8.6 -7.1

# faces
f 5/1/1 2/1/1 1/1/1
f 6/1/1 2/1/1 5/1/1
f 7/1/1 4/1/1 3/1/1
f 8/1/1 4/1/1 7/1/1
f 9/2/1 6/2/1 5/2/1
f 10/2/1 6/2/1 9/2/1
f 11/2/1 8/2/1 7/2/1
f 12/2/1 8/2/1 11/2/1
f 13/5/1 10/5/1 9/5/1
f 14/5/1 10/5/1 13/5/1
f 15/5/1 12/5/1 11/5/1
f 16/5/1 12/5/1 15/5/1
f 17/3/1 14/3/1 13/3/1
f 18/3/1 14/3/1 17/3/1
f 19/3/1 14/3/1 18/3/1
f 22/3/1 16/3/1 15/3/1
f 23/3/1 16/3/1 22/3/1
f 24/3/1 16/3/1 23/3/1
f 25/3/1 20/3/1 19/3/1
f 25/3/1 19/3/1 18/3/1
f 26/3/1 20/3/1 25/3/1
f 27/3/1 20/3/1 26/3/1
f 30/3/1 23/3/1 22/3/1
f 30/3/1 22/3/1 21/3/1
f 31/3/1 23/3/1 30/3/1
f 32/3/1 23/3/1 31/3/1
f 33/3/1 28/3/1 27/3/1
f 33/3/1 27/3/1 26/3/1
f 34/3/1 28/3/1 33/3/1
f 35/3/1 28/3/1 34/3/1
f 38/3/1 31/3/1 30/3/1
f 38/3/1 30/3/1 29/3/1
f 39/3/1 31/3/1 38/3/1
f 40/3/1 31/3/1 39/3/1
f 41/3/1 36/3/1 35/3/1
f 41/3/1 35/3/1 34/3/1
f 42/3/1 36/3/1 41/3/1
f 43/3/1 36/3/1 42/3/1
f 46/3/1 39/3/1 38/3/1
f 46/3/1 38/3/1 37/3/1
f 47/3/1 39/3/1 46/3/1
f 48/3/1 39/3/1 47/3/1
f 49/3/1 44/3/1 43/3/1
f 49/3/1 43/3/1 42/3/1
f 50/3/1 44/3/1 49/3/1
f 51/3/1 44/3/1 50/3/1
f 54/3/1 47/3/1 46/3/1
f 54/3/1 46/3/1 45/3/1
f 55/3/1 47/3/1 54/3/1
f 56/3/1 47/3/1 55/3/1
f 57/3/1 52/3/1 51/3/1
f 57/3/1 51/3/1 50/3/1
f 58/3/1 52/3/1 57/3/1
f 59/3/1 52/3/1 58/3/1
f 62/3/1 55/3/1 54/3/1
f 62/3/1 54/3/1 53/3/1
f 63/3/1 55/3/1 62/3/1
f 64/3/1 55/3/1 63/3/1
f 65/3/1 60/3/1 59/3/1
f 65/3/1 59/3/1 58/3/1
f 66/3/1 60/3/1 65/3/1
f 67/3/1 60/3/1 66/3/1
f 72/3/1 63/3/1 62/3/1
f 72/3/1 62/3/1 61/3/1
f 73/3/1 63/3/1 72/3/1
f 74/3/1 63/3/1 73/3/1
f 75/3/1 67/3/1 66/3/1
f 75/3/1 68/3/1 67/3/1
f 76/3/1 68/3/1 75/3/1
f 77/3/1 73/3/1 72/3/1
f 77/3/1 72/3/1 71/3/1
f 78/3/1 73/3/1 77/3/1
f 79/3/1 68/3/1 76/3/1
f 80/3/1 68/3/1 79/3/1
f 81/3/1 77/3/1 71/3/1
f 82/3/1 77/3/1 81/3/1
f 83/3/1 68/3/1 80/3/1
f 84/4/1 69/4/1 68/4/1
f 84/3/1 68/3/1 83/3/1
f 85/7/1 70/7/1 69/7/1
f 85/4/1 69/4/1 84/4/1
f 86/4/1 71/4/1 70/4/1
f 86/7/1 70/7/1 85/7/1
f 87/3/1 81/3/1 71/3/1
f 87/4/1 71/4/1 86/4/1
f 88/3/1 81/3/1 87/3/1
f 89/1/2 90/1/2 93/1/2
f 93/1/2 90/1/2 94/1/2
f 91/1/2 92/1/2 95/1/2
f 95/1/2 92/1/2 96/1/2
f 93/2/2 94/2/2 97/2/2
f 97/2/2 94/2/2 98/2/2
f 95/2/2 96/2/2 99/2/2
f 99/2/2 96/2/2 100/2/2
f 97/5/2 98/5/2 101/5/2
f 101/5/2 98/5/2 102/5/2
f 99/5/2 100/5/2 103/5/2
f 103/5/2 100/5/2 104/5/2
f 101/3/2 102/3/2 105/3/2
f 105/3/2 102/3/2 106/3/2
f 106/3/2 102/3/2 107/3/2
f 103/3/2 104/3/2 110/3/2
f 110/3/2 104/3/2 111/3/2
f 111/3/2 104/3/2 112/3/2
f 107/3/2 108/3/2 113/3/2
f 106/3/2 107/3/2 113/3/2
f 113/3/2 108/3/2 114/3/2
f 114/3/2 108/3/2 115/3/2
f 110/3/2 111/3/2 118/3/2
f 109/3/2 110/3/2 118/3/2
f 118/3/2 111/3/2 119/3/2
f 119/3/2 111/3/2 120/3/2
f 115/3/2 116/3/2 121/3/2
f 114/3/2 115/3/2 121/3/2
f 121/3/2 116/3/2 122/3/2
f 122/3/2 116/3/2 123/3/2
f 118/3/2 119/3/2 126/3/2
f 117/3/2 118/3/2 126/3/2
f 126/3/2 119/3/2 127/3/2
f 127/3/2 119/3/2 128/3/2
f 123/3/2 124/3/2 129/3/2
f 122/3/2 123/3/2 129/3/2
f 129/3/2 124/3/2 130/3/2
f 130/3/2 124/3/2 131/3/2
f 126/3/2 127/3/2 134/3/2
f 125/3/2 126/3/2 134/3/2
f 134/3/2 127/3/2 135/3/2
f 135/3/2 127/3/2 136/3/2
f 131/3/2 132/3/2 137/3/2
f 130/3/2 131/3/2 137/3/2
f 137/3/2 132/3/2 138/3/2
f 138/3/2 132/3/2 139/3/2
f 134/3/2 135/3/2 142/3/2
f 133/3/2 134/3/2 142/3/2
f 142/3/2 135/3/2 143/3/2
f 143/3/2 135/3/2 144/3/2
f 139/3/2 140/3/2 145/3/2
f 138/3/2 139/3/2 145/3/2
f 145/3/2 140/3/2 146/3/2
f 146/3/2 140/3/2 147/3/2
f 142/3/2 143/3/2 150/3/2
f 141/3/2 142/3/2 150/3/2
f 150/3/2 143/3/2 151/3/2
f 151/3/2 143/3/2 152/3/2
f 147/3/2 148/3/2 153/3/2
f 146/3/2 147/3/2 153/3/2
f 153/3/2 148/3/2 154/3/2
f 154/3/2 148/3/2 155/3/2
f 150/3/2 151/3/2 160/3/2
f 149/3/2 150/3/2 160/3/2
f 160/3/2 151/3/2 161/3/2
f 161/3/2 151/3/2 162/3/2
f 154/3/2 155/3/2 163/3/2
f 155/3/2 156/3/2 163/3/2
f 163/3/2 156/3/2 164/3/2
f 160/3/2 161/3/2 165/3/2
f 159/3/2 160/3/2 165/3/2
f 165/3/2 161/3/2 166/3/2
f 164/3/2 156/3/2 167/3/2
f 167/3/2 156/3/2 168/3/2
f 159/3/2 165/3/2 169/3/2
f 169/3/2 165/3/2 170/3/2
f 168/3/2 156/3/2 171/3/2
f 156/4/2 157/4/2 172/4/2
f 171/3/2 156/3/2 172/3/2
f 157/7/2 158/7/2 173/7/2
f 172/4/2 157/4/2 173/4/2
f 158/4/2 159/4/2 174/4/2
f 173/7/2 158/7/2 174/7/2
f 159/3/2 169/3/2 175/3/2
f 174/4/2 159/4/2 175/4/2
f 175/3/2 169/3/2 176/3/2
f 182/1/3 178/1/3 177/1/3
f 183/2/3 179/2/3 178/2/3
f 183/1/3 178/1/3 182/1/3
f 184/5/3 180/5/3 179/5/3
f 184/2/3 179/2/3 183/2/3
f 185/3/3 181/3/3 180/3/3
f 185/5/3 180/5/3 184/5/3
f 186/3/3 181/3/3 185/3/3
f 189/3/3 188/3/3 187/3/3
f 190/3/3 188/3/3 189/3/3
f 193/3/3 192/3/3 191/3/3
f 194/3/3 192/3/3 193/3/3
f 197/3/3 196/3/3 195/3/3
f 198/3/3 196/3/3 197/3/3
f 201/3/3 200/3/3 199/3/3
f 202/3/3 200/3/3 201/3/3
f 205/3/3 204/3/3 203/3/3
f 206/3/3 204/3/3 205/3/3
f 209/3/3 208/3/3 207/3/3
f 210/3/3 208/3/3 209/3/3
f 213/3/3 212/3/3 211/3/3
f 214/3/3 212/3/3 213/3/3
f 217/3/3 216/3/3 215/3/3
f 218/3/3 216/3/3 217/3/3
f 221/3/3 220/3/3 219/3/3
f 222/3/3 220/3/3 221/3/3
f 225/3/3 224/3/3 223/3/3
f 226/3/3 224/3/3 225/3/3
f 229/3/3 228/3/3 227/3/3
f 230/3/3 228/3/3 229/3/3
f 233/3/3 232/3/3 231/3/3
f 234/3/3 232/3/3 233/3/3
f 237/3/3 236/3/3 235/3/3
f 238/3/3 236/3/3 237/3/3
f 241/3/3 240/3/3 239/3/3
f 242/3/3 240/3/3 241/3/3
f 245/3/3 244/3/3 243/3/3
f 246/3/3 244/3/3 245/3/3
f 252/1/3 248/1/3 247/1/3
f 253/2/3 249/2/3 248/2/3
f 253/1/3 248/1/3 252/1/3
f 254/5/3 250/5/3 249/5/3
f 254/2/3 249/2/3 253/2/3
f 255/3/3 251/3/3 250/3/3
f 255/5/3 250/5/3 254/5/3
f 256/3/3 251/3/3 255/3/3
f 257/1/4 258/1/4 262/1/4
f 258/2/4 259/2/4 263/2/4
f 262/1/4 258/1/4 263/1/4
f 259/5/4 260/5/4 264/5/4
f 263/2/4 259/2/4 264/2/4
f 260/3/4 261/3/4 265/3/4
f 264/5/4 260/5/4 265/5/4
f 265/3/4 261/3/4 266/3/4
f 267/3/4 268/3/4 269/3/4
f 269/3/4 268/3/4 270/3/4
f 271/3/4 272/3/4 273/3/4
f 273/3/4 272/3/4 274/3/4
f 275/3/4 276/3/4 277/3/4
f 277/3/4 276/3/4 278/3/4
f 279/3/4 280/3/4 281/3/4
f 281/3/4 280/3/4 282/3/4
f 283/3/4 284/3/4 285/3/4
f 285/3/4 284/3/4 286/3/4
f 287/3/4 288/3/4 289/3/4
f 289/3/4 288/3/4 290/3/4
f 291/3/4 292/3/4 293/3/4
f 293/3/4 292/3/4 294/3/4
f 295/3/4 296/3/4 297/3/4
f 297/3/4 296/3/4 298/3/4
f 299/3/4 300/3/4 301/3/4
f 301/3/4 300/3/4 302/3/4
f 303/3/4 304/3/4 305/3/4
f 305/3/4 304/3/4 306/3/4
f 307/3/4 308/3/4 309/3/4
f 309/3/4 308/3/4 310/3/4
f 311/3/4 312/3/4 313/3/4
f 313/3/4 312/3/4 314/3/4
f 315/3/4 316/3/4 317/3/4
f 317/3/4 316/3/4 318/3/4
f 319/3/4 320/3/4 321/3/4
f 321/3/4 320/3/4 322/3/4
f 323/3/4 324/3/4 325/3/4
f 325/3/4 324/3/4 326/3/4
f 327/1/4 328/1/4 332/1/4
f 328/2/4 329/2/4 333/2/4
f 332/1/4 328/1/4 333/1/4
f 329/5/4 330/5/4 334/5/4
f 333/2/4 329/2/4 334/2/4
f 330/3/4 331/3/4 335/3/4
f 334/5/4 330/5/4 335/5/4
f 335/3/4 331/3/4 336/3/4
f 339/1/5 338/1/5 337/1/5
f 340/1/5 338/1/5 339/1/5
f 343/1/5 342/1/5 341/1/5
f 344/1/5 342/1/5 343/1/5
f 347/3/5 346/3/5 345/3/5
f 348/3/5 346/3/5 347/3/5
f 351/3/5 350/3/5 349/3/5
f 352/3/5 350/3/5 351/3/5
f 355/3/5 354/3/5 353/3/5
f 356/3/5 354/3/5 355/3/5
f 359/3/5 358/3/5 357/3/5
f 360/3/5 358/3/5 359/3/5
f 363/3/5 362/3/5 361/3/5
f 364/3/5 362/3/5 363/3/5
f 367/3/5 366/3/5 365/3/5
f 368/3/5 366/3/5 367/3/5
f 371/3/5 370/3/5 369/3/5
f 372/3/5 370/3/5 371/3/5
f 375/3/5 374/3/5 373/3/5
f 376/3/5 374/3/5 375/3/5
f 379/3/5 378/3/5 377/3/5
f 380/3/5 378/3/5 379/3/5
f 383/3/5 382/3/5 381/3/5
f 384/3/5 382/3/5 383/3/5
f 387/3/5 386/3/5 385/3/5
f 388/3/5 386/3/5 387/3/5
f 391/3/5 390/3/5 389/3/5
f 392/3/5 390/3/5 391/3/5
f 395/3/5 394/3/5 393/3/5
f 396/3/5 394/3/5 395/3/5
f 397/4/5 396/4/5 395/4/5
f 398/4/5 396/4/5 397/4/5
f 399/7/5 398/7/5 397/7/5
f 400/7/5 398/7/5 399/7/5
f 401/4/5 400/4/5 399/4/5
f 402/4/5 400/4/5 401/4/5
f 403/3/5 402/3/5 401/3/5
f 404/3/5 402/3/5 403/3/5
f 405/3/6 406/3/6 407/3/6
f 407/3/6 406/3/6 408/3/6
f 409/3/6 410/3/6 411/3/6
f 411/3/6 410/3/6 412/3/6
f 413/3/6 414/3/6 415/3/6
f 415/3/6 414/3/6 416/3/6
f 417/3/6 418/3/6 419/3/6
f 419/3/6 418/3/6 420/3/6
f 421/3/6 422/3/6 423/3/6
f 423/3/6 422/3/6 424/3/6
f 425/3/6 426/3/6 427/3/6
f 427/3/6 426/3/6 428/3/6
f 429/3/6 430/3/6 431/3/6
f 431/3/6 430/3/6 432/3/6
f 433/3/6 434/3/6 435/3/6
f 435/3/6 434/3/6 436/3/6
f 437/3/6 438/3/6 439/3/6
f 439/3/6 438/3/6 440/3/6
f 441/3/6 442/3/6 443/3/6
f 443/3/6 442/3/6 444/3/6
f 445/3/6 446/3/6 447/3/6
f 447/3/6 446/3/6 448/3/6
f 449/3/6 450/3/6 451/3/6
f 451/3/6 450/3/6 452/3/6
f 453/3/6 454/3/6 455/3/6
f 455/3/6 454/3/6 456/3/6
f 457/3/6 458/3/6 459/3/6
f 459/3/6 458/3/6 460/3/6
f 461/3/6 462/3/6 463/3/6
f 463/3/6 462/3/6 464/3/6
f 465/3/6 466/3/6 467/3/6
f 467/3/6 466/3/6 468/3/6
f 469/3/6 470/3/6 471/3/6
f 471/3/6 470/3/6 472/3/6
f 473/3/6 474/3/6 475/3/6
f 475/3/6 474/3/6 476/3/6
f 477/3/6 478/3/6 479/3/6
f 479/3/6 478/3/6 480/3/6
f 479/4/6 480/4/6 481/4/6
f 481/4/6 480/4/6 482/4/6
f 481/7/6 482/7/6 483/7/6
f 483/7/6 482/7/6 484/7/6
f 483/4/6 484/4/6 485/4/6
f 485/4/6 484/4/6 486/4/6
f 485/3/6 486/3/6 487/3/6
f 487/3/6 486/3/6 488/3/6
